<?xml version="1.0" encoding="UTF-8" standalone="no"?>
<!-- Created with Inkscape (http://www.inkscape.org/) -->

<svg
   width="97.072098mm"
   height="97.072113mm"
   viewBox="0 0 97.072098 97.072113"
   version="1.1"
   id="svg1"
   xmlns="http://www.w3.org/2000/svg"
   xmlns:svg="http://www.w3.org/2000/svg">
  <defs
     id="defs1" />
  <g
     id="layer1"
     transform="translate(-50.010617,-93.31149)">
    <g
       id="g26"
       transform="translate(3.5085484,-18.220714)">
      <path
         d="m 107.17175,113.08095 c -0.0529,0.0446 -0.092,0.0728 -0.14521,0.11783 -0.58546,0.49548 -1.19071,1.02027 -1.80712,1.56941 -0.61641,0.54914 -1.24392,1.12267 -1.87224,1.71721 -0.62832,0.59453 -1.25777,1.21008 -1.87895,1.84174 -0.62119,0.63166 -1.23382,1.27942 -1.828834,1.93994 -0.595016,0.66052 -1.172567,1.33374 -1.722375,2.01486 -0.549809,0.68112 -1.071965,1.3705 -1.557528,2.06396 -0.485563,0.69345 -0.934074,1.39072 -1.336353,2.08824 -0.402278,0.69753 -0.758376,1.39492 -1.058333,2.08825 -0.149979,0.34666 -0.285865,0.69256 -0.406693,1.03663 -0.120829,0.34406 -0.226445,0.68637 -0.315743,1.02681 -0.0893,0.34043 -0.162169,0.67915 -0.217558,1.01492 -0.05539,0.33577 -0.09355,0.66884 -0.112655,0.99891 -0.02065,0.3568 8.99e-4,0.70276 0.05891,1.03921 0.05801,0.33646 0.152516,0.66356 0.278536,0.98237 0.12602,0.31881 0.283264,0.62942 0.466638,0.93328 0.183375,0.30385 0.393141,0.60084 0.623218,0.89245 0.230077,0.2916 0.480597,0.57784 0.746725,0.85989 0.266127,0.28206 0.5477,0.5599 0.839225,0.8351 0.58305,0.55039 1.206035,1.08966 1.826762,1.62884 0.620727,0.53917 1.239108,1.07825 1.812292,1.6278 0.286593,0.27478 0.561896,0.55213 0.820626,0.83355 0.25873,0.28141 0.50119,0.56707 0.7214,0.85782 0.22021,0.29076 0.41807,0.58656 0.58911,0.88936 0.17104,0.30279 0.31511,0.61212 0.42633,0.92965 0.11122,0.31754 0.18973,0.64326 0.23048,0.97824 0.0407,0.33498 0.0435,0.67945 0.003,1.03456 -0.0307,0.26985 -0.0779,0.54037 -0.14056,0.81132 -0.0627,0.27095 -0.14057,0.54248 -0.23306,0.81391 -0.0925,0.27142 -0.19916,0.5426 -0.31936,0.8139 -0.1202,0.27129 -0.25367,0.54232 -0.39946,0.81287 -0.29159,0.54109 -0.63269,1.08048 -1.01389,1.61489 -0.381208,0.53441 -0.80294,1.06417 -1.256774,1.58698 -0.453834,0.52281 -0.939537,1.03832 -1.449007,1.54461 -0.04532,0.045 -0.09591,0.0874 -0.141593,0.13229 h 17.365864 a 16.236673,16.236673 0 0 1 4.20233,0.55294 16.236673,16.236673 0 0 1 3.91604,1.62212 16.236673,16.236673 0 0 1 3.36258,2.58021 16.236673,16.236673 0 0 1 2.58021,3.3631 16.236673,16.236673 0 0 1 1.62212,3.91552 16.236673,16.236673 0 0 1 0.55346,4.20233 16.236673,16.236673 0 0 1 -0.55346,4.20233 16.236673,16.236673 0 0 1 -1.62212,3.91604 16.236673,16.236673 0 0 1 -2.58021,3.36258 16.236673,16.236673 0 0 1 -3.36258,2.58072 16.236673,16.236673 0 0 1 -3.91604,1.62161 16.236673,16.236673 0 0 1 -4.20233,0.55345 16.236673,16.236673 0 0 1 -3.66076,-0.42943 16.236673,16.236673 0 0 1 -3.46955,-1.24385 16.236673,16.236673 0 0 1 -3.09955,-1.99471 16.236673,16.236673 0 0 1 -2.56987,-2.64221 H 88.108317 a 16.236673,16.236673 0 0 1 -2.569869,2.64221 16.236673,16.236673 0 0 1 -3.099552,1.99471 16.236673,16.236673 0 0 1 -3.469556,1.24385 16.236673,16.236673 0 0 1 -3.660758,0.42943 16.236673,16.236673 0 0 1 -4.202328,-0.55345 16.236673,16.236673 0 0 1 -3.915523,-1.62161 16.236673,16.236673 0 0 1 -3.363102,-2.58072 16.236673,16.236673 0 0 1 -2.580205,-3.36258 16.236673,16.236673 0 0 1 -1.622123,-3.91604 16.236673,16.236673 0 0 1 -0.552938,-4.20233 16.236673,16.236673 0 0 1 0.552938,-4.20233 16.236673,16.236673 0 0 1 1.622123,-3.91552 16.236673,16.236673 0 0 1 2.580205,-3.3631 16.236673,16.236673 0 0 1 3.363102,-2.58021 16.236673,16.236673 0 0 1 3.915523,-1.62212 16.236673,16.236673 0 0 1 4.202328,-0.55294 h 17.929654 c 0.294188,-0.26978 0.595512,-0.53591 0.875916,-0.81235 0.476951,-0.47022 0.931613,-0.94913 1.35599,-1.43506 0.424376,-0.48592 0.818276,-0.97875 1.174088,-1.47588 0.355812,-0.49713 0.673386,-0.9984 0.944645,-1.50223 0.13563,-0.25191 0.260061,-0.50483 0.371554,-0.75758 0.111493,-0.25274 0.210231,-0.5056 0.295589,-0.75861 0.08536,-0.25301 0.157232,-0.50589 0.214457,-0.75861 0.05723,-0.25271 0.100032,-0.5052 0.127124,-0.75706 0.03777,-0.3511 0.03259,-0.69114 -0.01033,-1.02112 -0.04292,-0.32999 -0.123633,-0.65 -0.236678,-0.9617 -0.113045,-0.3117 -0.258896,-0.61481 -0.431498,-0.91106 -0.172602,-0.29624 -0.37217,-0.58558 -0.593762,-0.86919 -0.221593,-0.28362 -0.465004,-0.56179 -0.725021,-0.83561 -0.260017,-0.27382 -0.536364,-0.54344 -0.824239,-0.81029 -0.57575,-0.5337 -1.196777,-1.0559 -1.820561,-1.57871 -0.623783,-0.52281 -1.250328,-1.04623 -1.837614,-1.58079 -0.293642,-0.26727 -0.577791,-0.53737 -0.84646,-0.81183 -0.268668,-0.27446 -0.521864,-0.5532 -0.754992,-0.83768 -0.233128,-0.28447 -0.446016,-0.57446 -0.633036,-0.87178 -0.187021,-0.29731 -0.348177,-0.60168 -0.478524,-0.91467 -0.130347,-0.31299 -0.229899,-0.63486 -0.293006,-0.96635 -0.06311,-0.33149 -0.09015,-0.67296 -0.07545,-1.02578 0.01363,-0.32718 0.04612,-0.65724 0.0956,-0.99063 0.04949,-0.3334 0.115954,-0.66966 0.198954,-1.00821 0.083,-0.33855 0.182448,-0.67952 0.296623,-1.02216 0.114175,-0.34264 0.243015,-0.68734 0.386023,-1.03301 0.286016,-0.69136 0.627621,-1.38751 1.014925,-2.08463 0.387304,-0.69712 0.820495,-1.39487 1.290361,-2.08928 0.469866,-0.69441 0.976282,-1.3854 1.509985,-2.06861 0.533703,-0.6832 1.094986,-1.35909 1.6738,-2.02261 0.578813,-0.66353 1.175055,-1.31492 1.780253,-1.95027 0.605198,-0.63535 1.219072,-1.25442 1.831929,-1.85312 0.612858,-0.5987 1.224969,-1.17708 1.826759,-1.73064 0.60179,-0.55356 1.19327,-1.0824 1.76527,-1.58233 0.43817,-0.38297 0.78481,-0.65594 1.19579,-1.00304 a 48.535988,48.535988 0 0 0 -1.74253,-0.30231 48.535988,48.535988 0 0 0 -2.36471,-0.29197 48.535988,48.535988 0 0 0 -2.375566,-0.17519 48.535988,48.535988 0 0 0 -2.381766,-0.0584 48.535988,48.535988 0 0 0 -6.907072,0.49403 48.535988,48.535988 0 0 0 -6.767029,1.47174 48.535988,48.535988 0 0 0 -6.488493,2.42053 48.535988,48.535988 0 0 0 -6.077665,3.31866 48.535988,48.535988 0 0 0 -5.543848,4.15013 48.535988,48.535988 0 0 0 -4.896859,4.89634 48.535988,48.535988 0 0 0 -4.150134,5.54385 48.535988,48.535988 0 0 0 -3.31866,6.07818 48.535988,48.535988 0 0 0 -2.420008,6.4885 48.535988,48.535988 0 0 0 -1.472261,6.76651 48.535988,48.535988 0 0 0 -0.494027,6.90759 48.535988,48.535988 0 0 0 0.494027,6.90707 48.535988,48.535988 0 0 0 1.472261,6.76703 48.535988,48.535988 0 0 0 2.420008,6.48849 48.535988,48.535988 0 0 0 3.31866,6.07766 48.535988,48.535988 0 0 0 4.150134,5.54385 48.535988,48.535988 0 0 0 4.896859,4.89686 48.535988,48.535988 0 0 0 5.543848,4.15014 48.535988,48.535988 0 0 0 6.077665,3.31866 48.535988,48.535988 0 0 0 6.488493,2.42 48.535988,48.535988 0 0 0 6.767029,1.47226 48.535988,48.535988 0 0 0 6.907072,0.49403 48.535988,48.535988 0 0 0 6.907592,-0.49403 48.535988,48.535988 0 0 0 6.76651,-1.47226 48.535988,48.535988 0 0 0 6.48849,-2.42 48.535988,48.535988 0 0 0 6.07818,-3.31866 48.535988,48.535988 0 0 0 5.54385,-4.15014 48.535988,48.535988 0 0 0 4.89634,-4.89686 48.535988,48.535988 0 0 0 4.15014,-5.54385 48.535988,48.535988 0 0 0 3.31866,-6.07766 48.535988,48.535988 0 0 0 2.42052,-6.48849 48.535988,48.535988 0 0 0 1.47175,-6.76703 48.535988,48.535988 0 0 0 0.49402,-6.90707 48.535988,48.535988 0 0 0 -0.0584,-2.38177 48.535988,48.535988 0 0 0 -0.17519,-2.37557 48.535988,48.535988 0 0 0 -0.29197,-2.36471 48.535988,48.535988 0 0 0 -0.40721,-2.34714 48.535988,48.535988 0 0 0 -0.52193,-2.32441 48.535988,48.535988 0 0 0 -0.6351,-2.29598 48.535988,48.535988 0 0 0 -0.74724,-2.26188 48.535988,48.535988 0 0 0 -0.85732,-2.2226 48.535988,48.535988 0 0 0 -0.96583,-2.17765 48.535988,48.535988 0 0 0 -1.07073,-2.12803 48.535988,48.535988 0 0 0 -1.17409,-2.07275 48.535988,48.535988 0 0 0 -1.27486,-2.01279 48.535988,48.535988 0 0 0 -1.37149,-1.94769 48.535988,48.535988 0 0 0 -1.46555,-1.87792 48.535988,48.535988 0 0 0 -1.55649,-1.80402 48.535988,48.535988 0 0 0 -1.64228,-1.72548 48.535988,48.535988 0 0 0 -1.72547,-1.64228 48.535988,48.535988 0 0 0 -1.80403,-1.55649 48.535988,48.535988 0 0 0 -1.87792,-1.46554 48.535988,48.535988 0 0 0 -1.94768,-1.3715 48.535988,48.535988 0 0 0 -2.0128,-1.27485 48.535988,48.535988 0 0 0 -2.07274,-1.17409 48.535988,48.535988 0 0 0 -2.12804,-1.07074 48.535988,48.535988 0 0 0 -2.17764,-0.96583 48.535988,48.535988 0 0 0 -2.22261,-0.85731 48.535988,48.535988 0 0 0 -2.26187,-0.74724 48.535988,48.535988 0 0 0 -1.95596,-0.54106 z"
         style="fill:#ffffff;stroke:#ffffff;stroke-width:0;stroke-linejoin:round;stroke-miterlimit:15.9"
         id="path20" />
      <path
         d="m 115.13044,175.21049 a 2.4565831,2.4565831 0 0 0 -1.22783,0.32918 2.4565831,2.4565831 0 0 0 -0.89917,0.89917 2.4565831,2.4565831 0 0 0 -0.32918,1.22835 2.4565831,2.4565831 0 0 0 0.32918,1.22835 2.4565831,2.4565831 0 0 0 0.89917,0.89917 2.4565831,2.4565831 0 0 0 1.22783,0.32918 2.4565831,2.4565831 0 0 0 1.22835,-0.32918 2.4565831,2.4565831 0 0 0 0.89917,-0.89917 2.4565831,2.4565831 0 0 0 0.32918,-1.22835 2.4565831,2.4565831 0 0 0 -0.0615,-0.54674 2.4565831,2.4565831 0 0 0 -0.1819,-0.51934 2.4565831,2.4565831 0 0 0 -0.29249,-0.46561 2.4565831,2.4565831 0 0 0 -0.38912,-0.38912 2.4565831,2.4565831 0 0 0 -0.4656,-0.29249 2.4565831,2.4565831 0 0 0 -0.51935,-0.1819 2.4565831,2.4565831 0 0 0 -0.54674,-0.0615 z"
         style="fill:#ffffff;stroke:#ffffff;stroke-width:0;stroke-linejoin:round;stroke-miterlimit:15.9"
         id="path26" />
      <path
         d="m 115.13044,175.21049 a 2.4565831,2.4565831 0 0 1 0.54674,0.0615 2.4565831,2.4565831 0 0 1 0.51935,0.1819 2.4565831,2.4565831 0 0 1 0.4656,0.29249 2.4565831,2.4565831 0 0 1 0.38912,0.38912 2.4565831,2.4565831 0 0 1 0.29249,0.46561 2.4565831,2.4565831 0 0 1 0.1819,0.51934 2.4565831,2.4565831 0 0 1 0.0615,0.54674 2.4565831,2.4565831 0 0 1 -0.32918,1.22835 2.4565831,2.4565831 0 0 1 -0.89917,0.89917 2.4565831,2.4565831 0 0 1 -1.22835,0.32918 2.4565831,2.4565831 0 0 1 -1.22783,-0.32918 2.4565831,2.4565831 0 0 1 -0.89917,-0.89917 2.4565831,2.4565831 0 0 1 -0.32918,-1.22835 2.4565831,2.4565831 0 0 1 0.32918,-1.22835 2.4565831,2.4565831 0 0 1 0.89917,-0.89917 2.4565831,2.4565831 0 0 1 1.22783,-0.32918 z"
         style="fill:#ffffff;stroke:#ffffff;stroke-width:0;stroke-linejoin:round;stroke-miterlimit:15.9"
         id="path25" />
      <path
         d="m 121.50886,168.83259 a 2.4565831,2.4565831 0 0 0 -1.22835,0.32866 2.4565831,2.4565831 0 0 0 -0.89917,0.89917 2.4565831,2.4565831 0 0 0 -0.32918,1.22835 2.4565831,2.4565831 0 0 0 0.32918,1.22835 2.4565831,2.4565831 0 0 0 0.89917,0.89917 2.4565831,2.4565831 0 0 0 1.22835,0.32918 2.4565831,2.4565831 0 0 0 1.22835,-0.32918 2.4565831,2.4565831 0 0 0 0.89917,-0.89917 2.4565831,2.4565831 0 0 0 0.32918,-1.22835 2.4565831,2.4565831 0 0 0 -0.062,-0.54622 2.4565831,2.4565831 0 0 0 -0.18139,-0.51935 2.4565831,2.4565831 0 0 0 -0.29248,-0.46612 2.4565831,2.4565831 0 0 0 -0.38913,-0.38861 2.4565831,2.4565831 0 0 0 -0.46612,-0.293 2.4565831,2.4565831 0 0 0 -0.51883,-0.18139 2.4565831,2.4565831 0 0 0 -0.54674,-0.0615 z"
         style="fill:#ffffff;stroke:#ffffff;stroke-width:0;stroke-linejoin:round;stroke-miterlimit:15.9"
         id="path24" />
      <path
         d="m 108.75253,168.83259 a 2.4565831,2.4565831 0 0 0 -1.22834,0.32866 2.4565831,2.4565831 0 0 0 -0.89917,0.89917 2.4565831,2.4565831 0 0 0 -0.32918,1.22835 2.4565831,2.4565831 0 0 0 0.32918,1.22835 2.4565831,2.4565831 0 0 0 0.89917,0.89917 2.4565831,2.4565831 0 0 0 1.22834,0.32918 2.4565831,2.4565831 0 0 0 1.22835,-0.32918 2.4565831,2.4565831 0 0 0 0.89917,-0.89917 2.4565831,2.4565831 0 0 0 0.32918,-1.22835 2.4565831,2.4565831 0 0 0 -0.0615,-0.54622 2.4565831,2.4565831 0 0 0 -0.1819,-0.51935 2.4565831,2.4565831 0 0 0 -0.29249,-0.46612 2.4565831,2.4565831 0 0 0 -0.38913,-0.38861 2.4565831,2.4565831 0 0 0 -0.4656,-0.293 2.4565831,2.4565831 0 0 0 -0.51935,-0.18139 2.4565831,2.4565831 0 0 0 -0.54674,-0.0615 z"
         style="fill:#ffffff;stroke:#ffffff;stroke-width:0;stroke-linejoin:round;stroke-miterlimit:15.9"
         id="path23" />
      <path
         d="m 72.770235,162.96886 v 6.14433 h -6.144328 v 4.35116 h 6.144328 v 6.14433 h 4.351673 v -6.14433 h 6.144327 v -4.35116 h -6.144327 v -6.14433 z"
         style="fill:#ffffff;stroke:#ffffff;stroke-width:0.959879;stroke-linejoin:round;stroke-miterlimit:15.9"
         id="path22" />
      <path
         d="m 115.13044,162.45417 a 2.4565831,2.4565831 0 0 0 -1.22783,0.32918 2.4565831,2.4565831 0 0 0 -0.89917,0.89917 2.4565831,2.4565831 0 0 0 -0.32918,1.22834 2.4565831,2.4565831 0 0 0 0.32918,1.22835 2.4565831,2.4565831 0 0 0 0.89917,0.89917 2.4565831,2.4565831 0 0 0 1.22783,0.32918 2.4565831,2.4565831 0 0 0 1.22835,-0.32918 2.4565831,2.4565831 0 0 0 0.89917,-0.89917 2.4565831,2.4565831 0 0 0 0.32918,-1.22835 2.4565831,2.4565831 0 0 0 -0.0615,-0.54673 2.4565831,2.4565831 0 0 0 -0.1819,-0.51935 2.4565831,2.4565831 0 0 0 -0.29249,-0.46561 2.4565831,2.4565831 0 0 0 -0.38912,-0.38912 2.4565831,2.4565831 0 0 0 -0.4656,-0.29249 2.4565831,2.4565831 0 0 0 -0.51935,-0.1819 2.4565831,2.4565831 0 0 0 -0.54674,-0.0615 z"
         style="fill:#ffffff;stroke:#ffffff;stroke-width:0;stroke-linejoin:round;stroke-miterlimit:15.9"
         id="path21" />
    </g>
  </g>
</svg>
